<svg width="40" height="27" fill="none" xmlns="http://www.w3.org/2000/svg"><path d="M15.929 18.536v-1.929H18.5v-5.786h-.04c-.322.503-.623.724-1.105 1.146l-1.547-1.608 2.973-2.752h2.29v9h2.572v1.929h-7.714zm10.285-5.143c0-3.656-2.21-8.357-6.428-8.357-4.219 0-6.429 4.7-6.429 8.357 0 3.656 2.21 8.357 6.429 8.357 4.218 0 6.428-4.7 6.428-8.357zM36.5 18.536a5.153 5.153 0 00-5.143 5.143H8.214a5.153 5.153 0 00-5.143-5.143V8.25a5.153 5.153 0 005.143-5.143h23.143A5.153 5.153 0 0036.5 8.25v10.286zM39.071 1.82c0-.703-.582-1.285-1.285-1.285h-36A1.296 1.296 0 00.5 1.82v23.143c0 .703.583 1.286 1.286 1.286h36c.703 0 1.285-.583 1.285-1.286V1.821z" fill="#fff"/></svg>